<svg xmlns="http://www.w3.org/2000/svg" id="Ebene_1" x="0" y="0" version="1.1" viewBox="0 0 841.89 170.079" xml:space="preserve"><path d="M230.266 85.676c5.322-1.048 7.652-5.326 7.652-11.402 0-11.696-6.152-14.703-16.654-14.703h-19.95v54.457h21.376c10.502 0 16.65-4.277 16.65-15.15.001-7.581-3.15-12.301-9.074-13.202m-23.553-21.074h14.551c5.773 0 11.179 1.272 11.179 9.672 0 8.404-5.333 9.604-11.179 9.604h-14.551V64.602zm15.978 44.402h-15.978V88.749h15.978c5.845 0 11.172 1.729 11.172 10.129 0 8.4-5.327 10.126-11.172 10.126M168.321 59.197L147.4 114.028h5.398l5.023-13.199h25.651l5.023 13.199h5.629l-20.927-54.831h-4.876zm-8.547 36.606l10.876-28.582 10.872 28.582h-21.748zM264.428 59.197l-20.925 54.831h5.397l5.029-13.199h25.65l5.027 13.199h5.621l-20.925-54.831h-4.874zm-8.551 36.606l10.875-28.582 10.875 28.582h-21.75z"/><polygon points="381.185,64.3 381.185,59.571 343.91,59.571 343.91,64.674 374.584,64.674 343.231,109.75 343.231,114.028 381.56,114.028 381.56,108.928 350.137,108.928"/><path d="M82.585 88.077h-4.952v4.953h9.449v15.373c-2.169.525-5.394 1.271-11.773 1.271-10.647 0-16.348-4.422-16.348-21.225v-3.6c0-17.178 5.405-21.078 16.87-21.078 5.856 0 12.004 1.129 14.329 1.651l1.199-4.872c-2.173-.753-8.253-1.954-15.377-1.954-12.597 0-22.866 2.998-22.866 28.202 0 25.203 10.193 28.055 22.045 28.055 8.101 0 14.695-1.652 17.326-2.477V88.077H82.585zM337.022 114.028L323.713 93.13c7.862-1.684 11.729-6.795 11.729-16.527 0-12.222-5.846-17.03-18.374-17.03h-19.651v54.457h5.479V93.78h14.024c.263 0 .51-.017.765-.021l12.885 20.271 6.452-.002zm-34.126-25.279V64.602h14.024c7.573 0 13.048 1.42 13.048 12.144 0 10.732-5.251 12.002-12.899 12.002h-14.173zM141.516 114.028l-13.3-20.898c7.857-1.684 11.729-6.795 11.729-16.527 0-12.222-5.848-17.03-18.378-17.03h-19.646v54.457h5.475V93.78h14.028c.258 0 .506-.017.765-.021l12.877 20.271 6.45-.002zm-34.121-25.279V64.602h14.028c7.57 0 13.043 1.42 13.043 12.144 0 10.732-5.246 12.002-12.9 12.002h-14.171z"/><g><path d="M500.136 59.571H480.49v54.457h5.471V93.779h14.025c12.447 0 18.529-4.952 18.529-17.177 0-12.223-5.853-17.031-18.379-17.031m0 29.178H485.96V64.602h14.025c7.58 0 13.057 1.42 13.057 12.144 0 10.732-5.251 12.003-12.906 12.003M538.591 59.197l-20.926 54.831h5.402l5.021-13.199h25.65l5.027 13.199h5.619L543.46 59.197h-4.869zm-8.55 36.606l10.871-28.582 10.879 28.582h-21.75z"/><polygon points="613.957,64.674 632.181,64.674 632.181,114.028 637.656,114.028 637.656,64.674 655.724,64.674 655.724,59.571 613.957,59.571"/><polygon points="698.054,104.276 668.201,59.571 663.027,59.571 663.027,114.028 668.277,114.028 668.277,69.022 698.353,114.028 703.3,114.028 703.3,59.571 698.054,59.571"/><polygon points="714.246,114.028 746.193,114.028 746.193,108.928 719.72,108.928 719.72,88.976 741.093,88.976 741.093,83.878 719.72,83.878 719.72,64.674 746.193,64.674 746.193,59.571 714.246,59.571"/><path d="M793.722 114.028L780.417 93.13c7.857-1.684 11.729-6.795 11.729-16.527 0-12.222-5.854-17.03-18.373-17.03h-19.65v54.457h5.479V93.78h14.025c.258 0 .502-.017.762-.021l12.883 20.271 6.45-.002zm-34.123-25.279V64.602h14.025c7.57 0 13.049 1.42 13.049 12.144 0 10.732-5.25 12.002-12.9 12.002h-14.174zM611.179 114.028L597.876 93.13c7.861-1.684 11.732-6.795 11.732-16.527 0-12.222-5.852-17.03-18.379-17.03h-19.646v54.457h5.475V93.78h14.025c.262 0 .502-.017.76-.021l12.887 20.271 6.449-.002zM577.06 88.749V64.602h14.025c7.572 0 13.051 1.42 13.051 12.144 0 10.732-5.254 12.002-12.904 12.002H577.06z"/></g><g><path d="M400.021 112.336c-.162.492-.21.912-.424 1.213-.227.316-.583.695-.93.752-3.237.531-6.474 1.1-9.733 1.438-1.34.139-2.283-.826-2.565-2.182-.221-1.062.005-2.066.948-2.729 2.716-1.904 9.14-1.871 11.731.103.452.345.684.974.973 1.405zM392.73 80.791c-2.196-.372-4.456-.683-6.681-1.161-1.25-.268-2.128-1.69-1.884-2.839.288-1.351 1.195-2.216 2.569-2.245a21.657 21.657 0 019.628 1.99c.722.334 1.392 1.159 1.035 2.034-.285.694-.897 1.467-1.558 1.743-.912.382-2.007.331-3.109.478zM397.487 63.105c-2.237-.107-4.281-.551-6.2-1.415-1.38-.623-2.368-1.688-2.828-3.179-.27-.883.047-1.645.547-2.333.562-.771 1.522-1 2.245-.696 2.486 1.045 4.913 2.238 7.318 3.465.513.263.96.847 1.206 1.387.236.521.271 1.188.212 1.772-.076.752-.782.88-1.385.984-.403.071-.829.015-1.115.015zM468.332 95.815c2.352.453 4.885 1.709 6.871 3.885.709.777.758 1.918.18 2.885-.67 1.129-1.721 1.951-3.035 1.508-2.553-.86-4.768-2.368-6.535-4.42-.695-.81-.809-1.858-.16-2.838.495-.752 1.255-.982 2.679-1.02zM427.5 135.452c-.127.721-.266 1.967-.578 3.166-.225.86-.926 1.364-1.84 1.439-.877.072-1.635-.213-2.17-.939-1.674-2.271-1.676-7.271-.016-9.461.889-1.173 2.996-.933 3.691.391.813 1.538.813 3.21.913 5.404zM396.513 96.172c-.625 1.134-.78 1.904-1.21 2.113-2.598 1.262-5.326 2.197-8.237 2.348-1.162.061-1.898-.754-2.287-1.768-.408-1.062-.149-2.215.777-2.742 2.774-1.584 5.778-2.183 8.911-1.199.76.239 1.405.845 2.046 1.248zM409.178 126.732c-.023.406.109.94-.1 1.204-1.53 1.934-3.062 3.879-4.738 5.684-.715.768-1.807.967-2.883.455-1.039-.492-1.623-1.955-1.185-3.215.938-2.695 2.736-4.617 5.361-5.73 1.377-.585 3.332.329 3.545 1.602zM403.619 38.092c.299.12 1.04.187 1.374.591 1.69 2.047 3.307 4.16 4.883 6.297.515.7.479 1.572-.04 2.292-.521.726-1.367 1.053-2.169.761-3.271-1.2-5.513-3.467-6.506-6.835-.42-1.428.864-3.159 2.458-3.106zM468.279 73.468c1.182.229 2.422.399 3.617.721 1.379.37 2.002 1.42 1.988 2.795-.014 1.174-1.205 2.416-2.4 2.443-2.072.044-4.184.188-6.104-.864-.959-.525-1.699-1.308-1.6-2.432.102-1.121.887-1.859 1.984-2.15.8-.211 1.624-.335 2.515-.513zM465.753 54.815c-.096.434-.055 1.154-.387 1.589-1.682 2.197-4.146 3.292-6.611 4.287-.975.393-2.031.015-2.748-.87-.738-.915-.625-2.56.293-3.379 2.029-1.818 4.336-3.131 7.102-3.385 1.113-.102 1.971.425 2.351 1.758zM430.9 36.902c-.068 1.875.1 3.337-.678 4.653-.443.756-1.125 1.239-1.965 1.312-.906.081-1.602-.486-1.895-1.287-.959-2.596-1.117-5.199.293-7.719.455-.814 1.229-1.038 2.084-.979.896.063 1.58.54 1.779 1.421.23.993.302 2.021.382 2.599zM445.375 126.109c.303.216 1.074.571 1.588 1.158 1.422 1.618 2.002 3.638 2.248 5.72.166 1.389-.621 2.396-1.865 2.938-1.039.447-2.693-.258-3.1-1.45a49.388 49.388 0 01-1.625-5.993c-.243-1.196 1.201-2.583 2.754-2.373zM451.531 40.307c-.055.399.002.854-.174 1.188-1.102 2.083-2.715 3.602-5.062 4.144-1.033.239-2.07.082-2.727-.899-.674-1.011-.42-2.023.398-2.766 1.365-1.233 2.785-2.425 4.285-3.483 1.067-.751 3.155.485 3.28 1.816zM467.228 115.254c-.459-.412-1.01-.752-1.561-1.026-4.51-2.246-7.387-5.957-9.67-10.326-.891-1.707-.887-3.067.08-4.638 2.654-4.322 2.613-9.16 2.496-13.978-.072-3.055-1.42-5.671-3.404-7.885-.852-.95-2.195-1.089-3.494-.547-1.174.489-1.652 1.597-1.393 2.534 1.221 4.381-1.189 8.116-1.945 12.138-.227 1.202-1.492 1.62-2.316.778-3.395-3.479-7.584-5.829-11.678-8.248.115-.34.158-.542.25-.716.758-1.419 2.299-1.791 3.559-2.417 7.23-3.607 10.289-12.817 8.311-20.498-.471-1.833-1.121-3.594-2.602-4.913-2.842-2.527-5.883-4.564-9.744-5.372-5.523-1.156-10.852-.503-16.002 1.425-9.666 3.617-13.079 13.449-8.16 22.517 1.905 3.512 4.6 6.397 7.251 9.603-1.714 1.312-3.19 2.407-4.628 3.547-2.711 2.149-4.646 4.896-5.321 8.278-.69 3.457-1.09 6.984-1.438 10.5-.187 1.888.424 3.683 1.25 5.429 3.585 7.595 9.943 10.354 17.869 10.214 4.615-.078 9.121-1.174 13.57-2.312 2.834-.723 5.504-1.967 7.645-4.121.828-.83 1.443-2.012 2.809-2.104 2.25 1.907 4.727 3.57 6.645 5.729 3.064 3.445 6.686 2.878 10.389 2.004 2.343-.557 3.033-3.975 1.232-5.595zm-45.871-54.349c1.857-1.042 3.88-1.527 5.251-1.426 4.195.1 7.354 1.114 10.334 2.712.963.516 1.529 1.33 1.393 2.542-.59 5.212-6.633 12.293-11.688 13.731-.932.263-1.729-.035-2.352-.492-1.682-1.231-3.218-2.66-4.869-3.935-4.582-3.54-2.861-10.435 1.931-13.132zm20.641 43.941c-1.527 3.908-4.15 6.619-8.369 7.703-2.664.686-5.352.854-8.062.916-1.043 0-2.094.076-3.129-.016-2.417-.214-4.265-1.652-6.028-3.107-1.498-1.238-.689-3.135-1.014-4.719-.69-3.381.59-6.084 2.559-8.668 1.52-1.994 2.911-4.072 4.938-5.627 1.418-1.084 2.66-1.641 4.506-.611 4.762 2.652 9.125 5.877 13.449 9.145 1.907 1.439 2.083 2.596 1.15 4.984z"/></g></svg>