<?xml version="1.0" encoding="utf-8"?>
<!-- Generator: Adobe Illustrator 21.1.0, SVG Export Plug-In . SVG Version: 6.00 Build 0)  -->
<svg version="1.1" id="Ebene_1" xmlns="http://www.w3.org/2000/svg" xmlns:xlink="http://www.w3.org/1999/xlink" x="0px" y="0px"
	 viewBox="0 0 1024 1024" style="enable-background:new 0 0 1024 1024;" xml:space="preserve">
<g>
	<path d="M406.1,646.7v-41.2c0-35.6,7.6-66.6,22.8-92.9s43-54.3,83.5-84c38.9-27.8,64.6-50.4,77.1-67.9
		c12.4-17.4,18.6-36.9,18.6-58.4c0-24.1-8.9-42.5-26.7-55.1c-17.8-12.6-42.7-18.9-74.6-18.9c-55.7,0-119.1,18.2-190.3,54.5
		l-60.7-121.8c82.7-46.3,170.5-69.5,263.2-69.5c76.4,0,137.2,18.4,182.2,55.1c45.1,36.7,67.6,85.7,67.6,146.8
		c0,40.8-9.3,76-27.8,105.7c-18.6,29.7-53.8,63-105.7,100.1c-35.6,26.3-58.1,46.4-67.6,60.1c-9.5,13.7-14.2,31.7-14.2,53.9v33.4
		H406.1z M388.3,837c0-31.2,8.3-54.7,25-70.7c16.7-16,41-23.9,72.9-23.9c30.8,0,54.6,8.2,71.5,24.5c16.9,16.3,25.3,39.7,25.3,70.1
		c0,29.3-8.5,52.4-25.6,69.3c-17.1,16.9-40.8,25.3-71.2,25.3c-31.2,0-55.3-8.3-72.4-24.8C396.8,890.3,388.3,867.1,388.3,837z"/>
</g>
</svg>
